<svg width="1819" height="218" viewBox="0 0 1819 218" fill="none" xmlns="http://www.w3.org/2000/svg">
<path fill-rule="evenodd" clip-rule="evenodd" d="M-1 139.378L74.8333 144.024C150.667 148.67 302.333 157.962 454 139.378C605.667 120.795 757.333 74.3351 909 92.9189C1060.67 111.503 1212.33 195.13 1364 213.714C1515.67 232.297 1667.33 185.838 1743.17 162.608L1819 139.378V0H1743.17C1667.33 0 1515.67 0 1364 0C1212.33 0 1060.67 0 909 0C757.333 0 605.667 0 454 0C302.333 0 150.667 0 74.8333 0H-1V139.378Z" fill="#181719"/>
</svg>
