<svg width="1820" height="174" viewBox="0 0 1820 174" fill="none" xmlns="http://www.w3.org/2000/svg">
<path fill-rule="evenodd" clip-rule="evenodd" d="M0 62.753L75.8333 59.0448C151.667 55.3366 303.333 47.9201 455 62.753C606.667 77.586 758.333 114.668 910 99.8354C1061.67 85.0024 1213.33 18.2542 1365 3.42131C1516.67 -11.4116 1668.33 25.6707 1744.17 44.2119L1820 62.753V174H1744.17C1668.33 174 1516.67 174 1365 174C1213.33 174 1061.67 174 910 174C758.333 174 606.667 174 455 174C303.333 174 151.667 174 75.8333 174H0V62.753Z" fill="#9C27B0"/>
</svg>
